<svg width="24" height="25" viewBox="0 0 24 25" fill="none" xmlns="http://www.w3.org/2000/svg">
<path d="M12 5.14307L12 5.15307M12 12.1431L12 12.1531M12 19.1431L12 19.1531M12 6.14307C11.4477 6.14307 11 5.69535 11 5.14307C11 4.59078 11.4477 4.14307 12 4.14307C12.5523 4.14307 13 4.59078 13 5.14307C13 5.69535 12.5523 6.14307 12 6.14307ZM12 13.1431C11.4477 13.1431 11 12.6954 11 12.1431C11 11.5908 11.4477 11.1431 12 11.1431C12.5523 11.1431 13 11.5908 13 12.1431C13 12.6954 12.5523 13.1431 12 13.1431ZM12 20.1431C11.4477 20.1431 11 19.6954 11 19.1431C11 18.5908 11.4477 18.1431 12 18.1431C12.5523 18.1431 13 18.5908 13 19.1431C13 19.6954 12.5523 20.1431 12 20.1431Z" stroke="#545F71" stroke-width="2" stroke-linecap="round" stroke-linejoin="round"/>
</svg>
