<svg width="16" height="17" viewBox="0 0 16 17" fill="none" xmlns="http://www.w3.org/2000/svg">
<path d="M0 2.5C0 1.39543 0.895431 0.5 2 0.5H14C15.1046 0.5 16 1.39543 16 2.5V14.5C16 15.6046 15.1046 16.5 14 16.5H2C0.895431 16.5 0 15.6046 0 14.5V2.5Z" fill="#0F54F4"/>
<path d="M7.53125 10.625C7.53125 9.78125 7.60677 9.17448 7.75781 8.80469C7.90885 8.4349 8.22917 8.03125 8.71875 7.59375C9.14583 7.21875 9.47135 6.89323 9.69531 6.61719C9.91927 6.34115 10.0312 6.02604 10.0312 5.67188C10.0312 5.24479 9.88802 4.89062 9.60156 4.60938C9.3151 4.32812 8.91667 4.1875 8.40625 4.1875C7.875 4.1875 7.47135 4.34896 7.19531 4.67188C6.91927 4.99479 6.72396 5.32292 6.60938 5.65625L5 4.96875C5.21875 4.30208 5.61979 3.72396 6.20312 3.23438C6.78646 2.74479 7.52083 2.5 8.40625 2.5C9.5 2.5 10.3411 2.80469 10.9297 3.41406C11.5182 4.02344 11.8125 4.75521 11.8125 5.60938C11.8125 6.13021 11.7005 6.57552 11.4766 6.94531C11.2526 7.3151 10.901 7.73438 10.4219 8.20312C9.91146 8.69271 9.60156 9.0651 9.49219 9.32031C9.38281 9.57552 9.32812 10.0104 9.32812 10.625H7.53125ZM8.40625 14.375C8.0625 14.375 7.76823 14.2526 7.52344 14.0078C7.27865 13.763 7.15625 13.4688 7.15625 13.125C7.15625 12.7812 7.27865 12.487 7.52344 12.2422C7.76823 11.9974 8.0625 11.875 8.40625 11.875C8.75 11.875 9.04427 11.9974 9.28906 12.2422C9.53385 12.487 9.65625 12.7812 9.65625 13.125C9.65625 13.4688 9.53385 13.763 9.28906 14.0078C9.04427 14.2526 8.75 14.375 8.40625 14.375Z" fill="white"/>
</svg>
