<svg width="15" height="16" viewBox="0 0 15 16" fill="none" xmlns="http://www.w3.org/2000/svg">
<path d="M6.625 10.5714C6.625 9.72766 6.70052 9.12089 6.85156 8.7511C7.0026 8.38131 7.32292 7.97766 7.8125 7.54016C8.23958 7.16516 8.5651 6.83964 8.78906 6.5636C9.01302 6.28756 9.125 5.97245 9.125 5.61829C9.125 5.1912 8.98177 4.83704 8.69531 4.55579C8.40885 4.27454 8.01042 4.13391 7.5 4.13391C6.96875 4.13391 6.5651 4.29537 6.28906 4.61829C6.01302 4.9412 5.81771 5.26933 5.70312 5.60266L4.09375 4.91516C4.3125 4.24849 4.71354 3.67037 5.29688 3.18079C5.88021 2.6912 6.61458 2.44641 7.5 2.44641C8.59375 2.44641 9.4349 2.7511 10.0234 3.36047C10.612 3.96985 10.9062 4.70162 10.9062 5.55579C10.9062 6.07662 10.7943 6.52193 10.5703 6.89172C10.3464 7.26152 9.99479 7.68079 9.51562 8.14954C9.00521 8.63912 8.69531 9.01152 8.58594 9.26672C8.47656 9.52193 8.42188 9.95683 8.42188 10.5714H6.625ZM7.5 14.3214C7.15625 14.3214 6.86198 14.199 6.61719 13.9542C6.3724 13.7094 6.25 13.4152 6.25 13.0714C6.25 12.7277 6.3724 12.4334 6.61719 12.1886C6.86198 11.9438 7.15625 11.8214 7.5 11.8214C7.84375 11.8214 8.13802 11.9438 8.38281 12.1886C8.6276 12.4334 8.75 12.7277 8.75 13.0714C8.75 13.4152 8.6276 13.7094 8.38281 13.9542C8.13802 14.199 7.84375 14.3214 7.5 14.3214Z" fill="black"/>
</svg>
