<svg width="20" height="21" viewBox="0 0 20 21" fill="none" xmlns="http://www.w3.org/2000/svg">
<path d="M8.32463 2.3886C8.75103 0.632186 11.249 0.632186 11.6754 2.3886C11.9508 3.52322 13.2507 4.06166 14.2478 3.45414C15.7913 2.51368 17.5576 4.27999 16.6172 5.82347C16.0096 6.82054 16.5481 8.12047 17.6827 8.39592C19.4391 8.82232 19.4391 11.3203 17.6827 11.7467C16.5481 12.0221 16.0096 13.322 16.6172 14.3191C17.5576 15.8626 15.7913 17.6289 14.2478 16.6884C13.2507 16.0809 11.9508 16.6194 11.6754 17.754C11.249 19.5104 8.75103 19.5104 8.32463 17.754C8.04918 16.6194 6.74926 16.0809 5.75219 16.6884C4.2087 17.6289 2.44239 15.8626 3.38285 14.3191C3.99038 13.322 3.45193 12.0221 2.31731 11.7467C0.560897 11.3203 0.560897 8.82232 2.31731 8.39592C3.45193 8.12047 3.99037 6.82054 3.38285 5.82347C2.44239 4.27999 4.2087 2.51368 5.75219 3.45414C6.74926 4.06166 8.04918 3.52322 8.32463 2.3886Z" stroke="white" stroke-width="2" stroke-linecap="round" stroke-linejoin="round"/>
<path d="M13 10.0713C13 11.7281 11.6569 13.0713 10 13.0713C8.34315 13.0713 7 11.7281 7 10.0713C7 8.41443 8.34315 7.07129 10 7.07129C11.6569 7.07129 13 8.41443 13 10.0713Z" stroke="white" stroke-width="2" stroke-linecap="round" stroke-linejoin="round"/>
</svg>
